# xmcd
#
# Track frame offsets:
#   150
#   18552
#   28462
#   48822
#   77168
#   95942
#   153673
#   175891
#   198603
#   226646
#   243727
#   274987
#
# Disc length: 4002 seconds
#
# Revision: 0
# Processed by: cddbd v1.5.2PL0 Copyright (c) Steve Scherf et al.
# Submitted via: uFREEDB 1.6.2
#
DISCID=a80fa00c
DTITLE=schiller21 - schiller21
DYEAR=1900
DGENRE=Books and Spoken
TTITLE0=schiller32
TTITLE1=schiller32
TTITLE2=schiller32
TTITLE3=schiller32
TTITLE4=schiller32
TTITLE5=schiller32
TTITLE6=schiller32
TTITLE7=schiller32
TTITLE8=schiller32
TTITLE9=schiller32
TTITLE10=schiller32
TTITLE11=schiller32
EXTD=
EXTT0=
EXTT1=
EXTT2=
EXTT3=
EXTT4=
EXTT5=
EXTT6=
EXTT7=
EXTT8=
EXTT9=
EXTT10=
EXTT11=
PLAYORDER=
